# xmcd CD database file
#
# Track frame offsets:
#	150
#	80211
#	118049
#	153779
#	185427
#
# Disc length: 2872 seconds
#
# Revision: 0
# Processed by: cddbd v1.5.1PL0 Copyright (c) Steve Scherf et al.
# Submitted via: CDex 1.50
#
DISCID=380b3605
DTITLE=Angelight - Intimland vol.2 Чувство
DYEAR=1900
DGENRE=New Age
TTITLE0=Остров любви
TTITLE1=Чувство
TTITLE2=В моей душе печали нет
TTITLE3=Свет моей любви
TTITLE4=Я снова вернусь
EXTD=
EXTT0=
EXTT1=
EXTT2=
EXTT3=
EXTT4=
PLAYORDER=
